<?xml version="1.0" encoding="UTF-8" standalone="no"?>
<svg
   viewBox="0 0 800.12 157.16"
   height="157.16"
   width="800.12"
   xml:space="preserve"
   id="svg2"
   version="1.1"
   webcrx=""
   xmlns="http://www.w3.org/2000/svg"
   xmlns:svg="http://www.w3.org/2000/svg"
   xmlns:rdf="http://www.w3.org/1999/02/22-rdf-syntax-ns#"
   xmlns:cc="http://creativecommons.org/ns#"
   xmlns:dc="http://purl.org/dc/elements/1.1/"><metadata
     id="metadata8"><rdf:RDF><cc:Work
         rdf:about=""><dc:format>image/svg+xml</dc:format><dc:type
           rdf:resource="http://purl.org/dc/dcmitype/StillImage" /></cc:Work></rdf:RDF></metadata><defs
     id="defs6"><clipPath
       id="clipPath20"
       clipPathUnits="userSpaceOnUse"><path
         id="path18"
         d="M 0,1178.69 V 0 h 6000.85 v 1178.69 z" /></clipPath></defs><g
     transform="matrix(1.3333333,0,0,-1.3333333,0,157.16)"
     id="g10"><g
       transform="scale(0.1)"
       id="g12"><g
         id="g14"><g
           clip-path="url(#clipPath20)"
           id="g16"><path
             id="path22"
             style="display:inline;fill:#ffffff;fill-opacity:1;fill-rule:nonzero;stroke:none"
             d="m 681.709,1178.6854 -84.375,-62.7539 313.81348,-421.91898 84.37501,62.76855 z M 488.17384,1010.7557 420.87892,929.95491 824.92678,593.45099 892.2217,674.25177 Z M 4655.171,826.24397 c -90.2,0 -129.3457,-63.81723 -129.3457,-126.78223 v -489.0967 h 110.6397 v 349.54103 h 81.6796 v 84.24316 h -81.6796 v 48.50098 c 0,25.528 12.7559,40.00489 39.1259,40.00489 h 42.5537 v 93.58887 z m 115.5762,0 v -489.5508 c 0,-62.972 38.2957,-126.78223 129.3457,-126.78223 h 62.959 v 93.60352 h -42.5391 c -28.08,0 -39.1406,13.60324 -39.1406,39.99024 V 826.24397 Z M 2506.4503,825.86311 V 209.99883 h 62.2851 l -0.3076,155.31739 75.5566,75.82031 142.7344,-231.1377 h 76.9776 l -176.5723,274.27735 151.9189,151.91895 h -77.6367 l -192.9785,-187.86621 0.3076,377.53419 z M 333.36915,791.43928 288.96973,696.10724 765.6299,474.11017 810.02932,569.4422 Z M 1534.2481,766.17072 V 324.16876 c 0,-63.141 36.339,-114.16993 108.999,-114.16993 h 44.1065 v 53.62793 h -32.8711 c -39.79,0 -57.9639,23.34851 -57.9639,62.27051 v 242.72462 h 60.3369 l 57.5684,57.56836 h -117.9053 v 139.98047 z m 1597.3975,-107.8125 c -65.52,0 -109.7769,-25.52889 -137.0069,-54.46289 -39.99,-41.699 -50.2148,-91.91142 -50.2148,-171.89942 0,-80.832 10.2248,-131.03538 50.2148,-172.73438 27.23,-28.93 71.4869,-54.46289 137.0069,-54.46289 65.52,0 110.6118,25.53289 137.8418,54.46289 40,41.699 50.2148,91.90238 50.2148,172.73438 0,79.988 -10.2148,130.20042 -50.2148,171.89942 -27.23,28.934 -72.3218,54.46289 -137.8418,54.46289 z m 787.3975,0 c -114.88,0 -193.169,-81.69431 -193.169,-226.36231 0,-179.551 100.4081,-227.19727 205.0781,-227.19727 79.99,0 123.3864,24.67916 168.4864,69.78516 l -67.2217,65.52246 c -28.09,-28.085 -51.905,-41.68946 -100.415,-41.68946 -62.12,0 -97.002,41.69318 -97.002,98.70118 h 277.4121 v 49.35059 c 0,121.687 -69.7889,211.88965 -193.1689,211.88965 z m 467.8125,0 c -47.65,0 -90.2046,-22.12437 -111.4746,-47.65137 v 42.53906 H 4167.3048 V 209.91094 h 110.625 v 267.18751 c 0,56.164 37.4444,81.69434 71.4844,81.69434 27.23,0 41.344,-9.04457 58.374,-26.05957 l 83.7305,83.9209 c -30.63,30.637 -61.2631,41.7041 -104.6631,41.7041 z m 786.7383,0 c -65.53,0 -109.7769,-25.52889 -137.0069,-54.46289 -40,-41.699 -50.2002,-91.91142 -50.2002,-171.89942 0,-80.832 10.2002,-131.03538 50.2002,-172.73438 27.23,-28.93 71.4769,-54.46289 137.0069,-54.46289 65.52,0 110.6118,25.53289 137.8418,54.46289 40,41.699 50.2148,91.90238 50.2148,172.73438 0,79.988 -10.2148,130.20042 -50.2148,171.89942 -27.23,28.934 -72.3218,54.46289 -137.8418,54.46289 z m -1855.4591,-5.11231 163.3887,-443.33497 h 86.792 l 162.5391,443.33497 h -116.5869 l -89.3409,-273.99903 -90.205,273.99903 z m 2043.6622,0 136.1426,-443.33497 h 91.0547 l 92.7392,278.24708 92.7686,-278.24708 h 91.0547 l 135.293,443.33497 h -116.5723 l -71.4844,-273.99903 -91.0547,273.99903 h -80.8301 l -90.205,-273.99903 -71.4698,273.99903 z M 1312.0313,640.7508 c -90.83,0 -156.5625,-46.70767 -156.5625,-124.55567 0,-70.066 44.1084,-107.24892 127.1484,-114.16992 l 70.0781,-6.04981 c 49.3,-4.336 70.9278,-25.09016 70.9278,-62.28516 0,-50.164 -43.2503,-75.26367 -113.3203,-75.26367 -52.76,0 -98.6087,13.84564 -132.3487,49.30664 l -41.5136,-41.52832 c 46.71,-44.977 102.9265,-61.40625 174.7265,-61.40625 102.93,0 172.9981,47.57721 172.9981,129.74121 0,79.594 -51.0299,108.13748 -125.4199,115.06348 l -68.3497,6.04981 c -53.62,4.321 -74.3701,25.93851 -74.3701,62.27051 0,43.246 32.8516,70.06347 95.1416,70.06347 44.11,0 83.0457,-10.3777 113.3057,-33.7207 l 40.6641,40.64942 c -38.07,31.129 -92.5555,45.83496 -153.1055,45.83496 z m 579.2871,0 c -68.28,0 -111.2846,-13.47153 -148.9746,-61.18653 -0.52,-0.648 40.8398,-40.86914 40.8398,-40.86914 25.09,35.46 52.7805,48.42774 107.2705,48.42774 77.85,0 108.9844,-31.14409 108.9844,-93.41309 v -40.64942 h -128.0127 c -95.15,0 -147.0556,-48.4558 -147.0556,-122.8418 0,-33.731 11.2568,-65.73002 32.0068,-86.49902 26.82,-27.68 61.4144,-38.9209 120.2344,-38.9209 57.09,0 88.2171,11.24761 122.8271,45.84961 v -40.64942 h 62.2705 v 288.89649 c 0,92.555 -56.2206,141.85548 -170.3906,141.85548 z m 414.3164,0 c -107.26,0 -188.5693,-72.65841 -188.5693,-217.98341 0,-145.304 81.3093,-217.96875 188.5693,-217.96875 58.82,0 96.017,15.58741 140.127,63.14941 l -42.378,40.64942 c -32,-35.461 -57.099,-48.44239 -97.749,-48.44239 -41.52,0 -76.1086,16.44239 -98.5986,48.44239 -19.9,27.679 -27.6856,60.54492 -27.6856,114.16992 0,53.629 7.7856,86.50458 27.6856,114.18458 22.49,32.012 57.0786,48.44238 98.5986,48.44238 40.65,0 65.749,-12.10248 97.749,-47.56348 0,0 41.7026,40.51679 41.3526,40.88379 -43.66,46.711 -80.7416,62.03614 -139.1016,62.03614 z m 1613.4083,-74.29688 c 37.44,0 62.1232,-19.56915 74.0332,-45.95215 6.81,-16.172 9.3499,-28.07337 10.2099,-47.65137 h -168.4863 c 0.84,19.578 3.4,31.47937 10.21,47.65137 11.91,26.383 36.5932,45.95215 74.0332,45.95215 z m -787.3975,-7.66113 c 22.12,0 39.1394,-6.80532 51.8994,-19.57032 22.97,-22.965 25.5322,-61.26556 25.5322,-107.22656 0,-45.945 -2.5622,-85.09753 -25.5322,-108.06153 -12.76,-12.766 -29.7794,-19.57031 -51.8994,-19.57031 -22.12,0 -38.2945,6.80431 -51.0645,19.57031 -22.98,22.964 -25.5322,62.11653 -25.5322,108.06153 0,45.961 2.5522,84.26156 25.5322,107.22656 12.77,12.765 28.9445,19.57032 51.0645,19.57032 z m 2041.9483,0 c 22.12,0 39.1394,-6.80532 51.8994,-19.57032 22.97,-22.965 25.5322,-61.26556 25.5322,-107.22656 0,-45.945 -2.5622,-85.09753 -25.5322,-108.06153 -12.76,-12.766 -29.7794,-19.57031 -51.8994,-19.57031 -22.13,0 -38.3045,6.80431 -51.0645,19.57031 -22.98,22.964 -25.5322,62.11653 -25.5322,108.06153 0,45.961 2.5522,84.26156 25.5322,107.22656 12.76,12.765 28.9345,19.57032 51.0645,19.57032 z M 242.51954,552.6258 220.88379,449.70587 735.46877,341.55645 757.10451,444.47638 Z M 0,420.68732 V -0.00117188 H 945.87893 V 420.68732 H 840.71779 V 105.17461 H 105.16114 v 315.51271 z m 1880.0684,-14.34083 h 119.3701 v -45.83496 c 0,-35.477 -6.9357,-59.70316 -21.6357,-73.53516 -26.82,-25.949 -58.8116,-28.5498 -95.1416,-28.5498 -67.47,0 -97.7344,23.3579 -97.7344,72.6709 0,49.293 31.1316,75.24902 95.1416,75.24902 z M 210.43946,315.52618 V 210.36504 h 525.82032 v 105.16114 z" /></g></g></g></g></svg>
